<svg width="512" height="512" viewBox="0 0 512 512" fill="none" xmlns="http://www.w3.org/2000/svg">
<path d="M327.629 432.069L368.954 446.313C364.842 490.169 321.028 519.886 274.89 510.146C213.446 487.89 151.063 467.171 90.0436 443.81C37.7282 423.781 4.07456 390.008 1.0319 334.756C-2.25049 275.274 3.57667 213.219 1.0319 153.461C4.66465 111.366 40.5865 82.0998 85.8759 85.2599C104.611 86.572 124.306 97.6566 142.027 103.148C142.23 80.7185 139.63 58.7389 151.174 38.2438C166.903 10.4279 200.686 -4.47278 233.823 1.19053C296.686 23.1877 360.25 44.6496 422.394 68.4941C475.06 88.6955 507.81 122.727 510.853 178.083C514.227 239.257 508.99 303.832 509.931 365.214C502.96 408.535 458.242 436.005 412.695 424.385C347.987 404.184 284.294 374.192 219.735 354.474C188.146 344.823 157.48 345.807 127.182 358.826C104.482 368.581 79.8459 385.519 106.455 407.585C163.473 427.027 219.071 451.528 276.457 469.899C287.171 473.335 294.695 474.803 305.741 470.848C321.987 465.047 330.524 447.539 327.629 432.052V432.069ZM214.35 39.228C173.928 43.7345 184.846 89.9044 183.426 116.253L184.255 118.462L296.409 158.883C332.037 169.605 376.644 162.923 406.277 141.375C420.458 131.05 419.96 113.542 404.931 104.27C344.318 82.4455 284.349 58.3937 222.814 39.1244C219.993 38.8999 217.19 38.9344 214.368 39.2453L214.35 39.228ZM328.422 352.247C327.389 317.266 332.848 281.749 318.446 248.615C305.39 218.537 280.293 196.195 248.76 183.366C196.702 162.181 141.068 145.709 88.513 125.335C65.4073 119.292 44.1086 133.398 42.449 155.723C43.3156 213.479 40.8815 271.597 43.6845 329.145C49.6222 342.958 64.3562 348.172 78.5738 340.938C106.013 326.969 128.492 300.932 137.288 272.857C146.176 244.489 140.423 213.358 142.045 184.074L143.244 182.969L183.333 197.283C183.352 213.461 183.297 229.674 187.187 245.507C195.725 280.229 221.597 309.738 255.398 325.571L328.422 352.282V352.247ZM459.57 378.095C465.452 372.414 468.808 364.195 469.435 356.391L469.399 188.564C467.057 172.04 450.755 163.113 434.344 170.641C399.786 186.491 374.191 223.994 369.95 259.51C370.687 292.609 365.985 330.336 369.065 363.073C369.157 364.092 369.655 367.562 370.393 367.959C386.638 372.604 401.907 380.201 418.024 385.105C433.237 389.732 447.768 389.49 459.57 378.112V378.095Z" fill="#ED8E06"/>
</svg>
